# xmcd CD database file
#
# Track frame offsets:
#	150
#	18505
#	36807
#
# Disc length: 732 seconds
#
# Revision: 0
# Processed by: cddbd v1.5PL3 Copyright (c) Steve Scherf et al.
# Submitted via: CDex 1.51
#
DISCID=1b02da03
DTITLE=田村英里子 - まかせて！チン・トン・シャン
DYEAR=1991
DGENRE=Pop
TTITLE0=まかせて！チン・トン・シャン
TTITLE1=まかせて！チン・トン・シャン（インストゥルメンタル・バージョン）
TTITLE2=まかせて！チン・トン・シャン（カラオケ・バージョン）
EXTD=YEAR: 1991
EXTT0=
EXTT1=
EXTT2=
PLAYORDER=
